<svg width="25" height="25" viewBox="0 0 25 25" fill="none" xmlns="http://www.w3.org/2000/svg">
<path d="M12.816 15.1832V9.75729C12.816 8.64756 13.0511 7.8566 13.5565 7.8566H16.6724C16.688 7.8566 16.7091 7.8208 16.7091 7.77648V6.69232C16.7096 6.68436 16.7083 6.67584 16.7052 6.66675H12.8933C12.0676 6.89688 11.6646 8.15832 11.6646 9.75559V15.1815C11.6646 16.2725 11.4209 17.072 10.9241 17.072H7.64099C7.6199 17.072 7.60428 17.0975 7.60428 17.1521V18.2345C7.60428 18.2806 7.61287 18.3164 7.62381 18.3232H11.3584C12.3309 18.2618 12.8113 16.9117 12.8113 15.173L12.816 15.1832ZM0.024215 18.3334H1.11858C1.12733 18.3255 1.13478 18.312 1.13994 18.2946C1.1451 18.2773 1.14773 18.2569 1.14748 18.2363V14.7843C1.14748 13.6746 1.43181 12.9109 1.85049 12.9109H6.35526C7.3676 12.9109 7.86049 11.5523 7.86049 9.76752C7.86049 8.16003 7.45743 6.90881 6.63178 6.67868H0.00859241C0.00859241 6.6855 0 6.69402 0 6.70425V7.78841C0 7.84182 0.0122377 7.86853 0.036713 7.86853H5.9725C6.47789 7.86853 6.71301 8.65949 6.71301 9.75899C6.71301 10.8585 6.47789 11.6597 5.9725 11.6597H1.27871C0.549914 11.6597 0.000781128 13.0098 0.000781128 14.7843V18.2363C0.000781128 18.2823 0.0132792 18.3181 0.0289017 18.3249L0.024215 18.3334ZM16.688 17.0839H22.6691C22.6847 17.0839 22.7011 17.1095 22.7011 17.1367V18.2363C22.7011 18.2908 22.7168 18.3181 22.7332 18.3181H23.8111C23.8322 18.3181 23.8517 18.2908 23.8517 18.2363V17.1538C23.8517 17.1078 23.8728 17.0737 23.8924 17.0737H24.9633C24.9875 17.0737 25 17.0276 25 16.9936V15.8906C25 15.848 24.9914 15.802 24.9633 15.802H23.8924C23.8728 15.802 23.8517 15.7679 23.8517 15.7321V7.8566C23.8517 7.21735 23.7463 6.80824 23.5588 6.66845H23.2495C23.1393 6.74267 23.0332 6.84329 22.9331 6.96847L16.4966 15.6435C16.2443 15.9895 16.1592 16.3714 16.2193 16.6543C16.2686 16.8947 16.4154 17.072 16.6911 17.072L16.688 17.0839ZM17.6246 15.6367L22.6121 8.89814C22.6441 8.8453 22.7058 8.86235 22.7058 9.01406V15.744C22.7058 15.7867 22.6894 15.8242 22.6738 15.8242H17.6527C17.6121 15.8242 17.5926 15.7969 17.5879 15.7713C17.5795 15.7179 17.5918 15.673 17.6246 15.6367Z" fill="black"/>
</svg>
