<svg width="25" height="25" viewBox="0 0 25 25" fill="none" xmlns="http://www.w3.org/2000/svg">
<path d="M6.19136 12.124C8.12984 9.2627 9.99507 7.59278 9.99507 7.59278C9.99507 7.59278 7.93941 5.20508 5.46382 4.30176L5.30269 4.2627C3.22057 6.08327 1.905 8.62467 1.62056 11.3758C1.33611 14.1269 2.10389 16.8838 3.76949 19.0918C3.76949 18.877 3.79878 15.6592 6.19136 12.124ZM23.4375 12.5C23.4386 10.9395 23.1054 9.39683 22.4602 7.97593C21.815 6.55503 20.8729 5.28886 19.6972 4.2627L19.541 4.30665C17.0654 5.20997 15.0048 7.59766 15.0048 7.59766C15.0048 7.59766 16.8701 9.26758 18.8086 12.1289C21.2011 15.6641 21.2304 18.8818 21.2255 19.0967C22.6651 17.1992 23.4421 14.8817 23.4375 12.5ZM9.82417 3.9502C11.2548 4.58985 12.4902 5.63965 12.4902 5.63965C12.4902 5.63965 13.7353 4.59473 15.166 3.9502C16.9628 3.14454 18.3349 3.39844 18.6962 3.48633C16.8729 2.23328 14.7124 1.5625 12.5 1.5625C10.2875 1.5625 8.12706 2.23328 6.30367 3.48633C6.65523 3.39844 8.02242 3.13965 9.82417 3.9502ZM17.5146 14.3018C15.2539 11.5234 12.4902 9.7168 12.4902 9.7168C12.4902 9.7168 9.74117 11.5234 7.47554 14.3018C5.53218 16.6895 4.80953 18.4424 4.4189 19.5654L4.35542 19.7998C5.38125 20.9443 6.63675 21.8597 8.04008 22.4863C9.44341 23.113 10.9631 23.4369 12.5 23.4369C14.0369 23.4369 15.5565 23.113 16.9598 22.4863C18.3632 21.8597 19.6187 20.9443 20.6445 19.7998L20.5761 19.5654C20.1855 18.4424 19.458 16.6895 17.5146 14.3018Z" fill="black"/>
</svg>
