<svg width="25" height="25" viewBox="0 0 25 25" fill="none" xmlns="http://www.w3.org/2000/svg">
<path d="M6.59013 6.66675H0V8.27692H6.2349C6.63076 8.31188 7.05059 8.77068 7.05059 9.97449C7.05059 11.1761 6.6391 11.6349 6.25052 11.6699H1.22927C1.18031 11.6699 0.930286 11.6873 0.663597 11.9583C0.275023 12.3646 0.0562547 13.1446 0.0562547 14.1277V18.0625H1.10843V14.1299C1.10843 13.5357 1.27719 13.1795 1.56888 13.1621H6.25885C6.86516 13.1446 7.77044 12.2794 7.77044 9.9723C7.75481 7.56469 7.15581 6.68423 6.59013 6.66675ZM11.5072 7.44671C11.3344 7.87601 11.2471 8.4284 11.2634 8.98916V15.9258C11.2634 16.4349 11.1666 16.6206 11.1343 16.6905C10.9728 17.0116 10.6978 17.0291 10.6165 17.0291H7.5923V18.2154H11.127C11.2968 18.2154 11.7249 18.1477 12.0323 17.5535C12.1781 17.2825 12.3469 16.756 12.3469 15.9083V8.8537C12.3469 8.77068 12.3469 8.42986 12.4448 8.1939C12.5573 7.93828 12.7521 7.88803 12.9052 7.88803H16.1889V6.7017H12.3864C12.0073 6.75195 11.7072 6.98791 11.5051 7.44671M24.5062 12.3471L24.5635 12.2466C24.8458 11.6699 24.9917 10.9052 24.9917 9.97449C24.9917 7.56469 24.3854 6.68423 23.8197 6.66675H17.2046V8.27692H23.4634C23.8593 8.31188 24.2801 8.77068 24.2801 9.97449C24.2801 11.1761 23.8676 11.6349 23.4801 11.6699H17.2046V12.8562H23.4634C23.7864 12.8562 24.1749 13.2473 24.1749 15.1458C24.1749 16.3496 23.7624 16.8063 23.3749 16.8412H17.2129V18.3334H23.4884C24.0947 18.3159 25 17.453 25 15.1458C25 13.9748 24.8542 13.0419 24.5718 12.4673L24.5062 12.3471Z" fill="black"/>
</svg>
