<svg width="15" height="25" viewBox="0 0 15 25" fill="none" xmlns="http://www.w3.org/2000/svg">
<path fill-rule="evenodd" clip-rule="evenodd" d="M3.27667 9.00897C2.84671 9.00897 2.42095 9.09925 2.02371 9.27466C1.62648 9.45007 1.26554 9.70716 0.961509 10.0313C0.657477 10.3554 0.416306 10.7402 0.251765 11.1636C0.0872246 11.5871 0.00253679 12.041 0.00253679 12.4993C0.00253679 12.9577 0.0872246 13.4116 0.251765 13.835C0.416306 14.2585 0.657477 14.6433 0.961509 14.9674C1.26554 15.2915 1.62648 15.5486 2.02371 15.724C2.42095 15.8994 2.84671 15.9897 3.27667 15.9897H6.55081V9.00897H3.27667ZM6.55081 6.98205H3.27667C2.40815 6.98205 1.5752 6.61425 0.96106 5.95956C0.346922 5.30486 0.00190275 4.41691 0.00190275 3.49103C0.00190275 2.56515 0.346922 1.67719 0.96106 1.0225C1.5752 0.367804 2.40815 0 3.27667 0H6.55081V6.98205ZM8.45216 0V6.98205H11.7263C12.5837 6.96407 13.4002 6.58837 14.0006 5.93563C14.601 5.28289 14.9373 4.40519 14.9373 3.49103C14.9373 2.57687 14.601 1.69916 14.0006 1.04643C13.4002 0.393689 12.5837 0.0179827 11.7263 0H8.45216ZM11.7263 9.00762C10.8669 9.00751 10.0419 9.36762 9.42932 10.0103C8.81677 10.6529 8.4658 11.5265 8.45216 12.4426V12.5547C8.46265 13.2425 8.66356 13.9117 9.02965 14.4782C9.39573 15.0446 9.91067 15.4831 10.5098 15.7386C11.1089 15.9941 11.7655 16.0552 12.3971 15.9142C13.0286 15.7732 13.607 15.4364 14.0596 14.946C14.5122 14.4557 14.8188 13.8338 14.9409 13.1583C15.0629 12.4828 14.9951 11.784 14.7458 11.1495C14.4965 10.515 14.0769 9.97321 13.5397 9.59214C13.0024 9.21107 12.3716 9.00771 11.7263 9.00762ZM3.27667 18.0166C2.6288 18.0163 1.99541 18.2209 1.45661 18.6044C0.917806 18.9879 0.497793 19.5331 0.249691 20.1711C0.00158907 20.8091 -0.0634561 21.5113 0.0627828 22.1887C0.189022 22.8661 0.500874 23.4884 0.958896 23.9768C1.41692 24.4653 2.00054 24.798 2.63594 24.9328C3.27134 25.0676 3.92998 24.9986 4.52855 24.7343C5.12713 24.4701 5.63875 24.0226 5.99871 23.4483C6.35868 22.8741 6.55081 22.1989 6.55081 21.5083V18.0166H3.27667Z" fill="white"/>
</svg>
