<svg width="25" height="25" viewBox="0 0 25 25" fill="none" xmlns="http://www.w3.org/2000/svg">
<path d="M14.1875 21.875C14.099 21.875 14.0406 21.8156 14.0552 21.7427V3.25729C14.0552 3.19896 14.099 3.13958 14.1729 3.13958H17.074C18.3476 3.13958 19.569 3.64552 20.4695 4.54608C21.3701 5.44665 21.876 6.66807 21.876 7.94167V17.0729C21.876 18.3465 21.3701 19.5679 20.4695 20.4685C19.569 21.3691 18.3476 21.875 17.074 21.875H14.1875ZM17.7521 11.5354C16.7062 11.5354 15.8521 12.3896 15.8521 13.4354C15.8521 14.4812 16.7062 15.3354 17.7521 15.3354C18.7979 15.3354 19.6521 14.4812 19.6521 13.4354C19.6521 12.3896 18.7979 11.5354 17.7521 11.5354ZM6.04167 8.75C6.04277 8.28179 6.22925 7.83307 6.56033 7.50199C6.8914 7.17092 7.34012 6.98443 7.80833 6.98333C8.27672 6.98416 8.72571 7.17052 9.05701 7.50163C9.38831 7.83273 9.57494 8.28161 9.57604 8.75C9.57604 9.72292 8.78125 10.5177 7.80833 10.5177C7.33994 10.5166 6.89107 10.33 6.55996 9.99868C6.22885 9.66738 6.04249 9.21839 6.04167 8.75ZM12.0208 3.125C12.1094 3.125 12.1687 3.18438 12.1542 3.25729V21.7292C12.1542 21.8021 12.0948 21.8615 12.0208 21.8615H7.92708C7.29638 21.8615 6.67185 21.7372 6.08916 21.4958C5.50648 21.2544 4.97706 20.9006 4.53113 20.4546C4.0852 20.0086 3.7315 19.4791 3.49024 18.8963C3.24897 18.3136 3.12486 17.689 3.125 17.0583V7.92708C3.125 7.29638 3.24924 6.67185 3.49064 6.08916C3.73203 5.50648 4.08584 4.97706 4.53187 4.53113C4.97789 4.0852 5.50739 3.7315 6.09013 3.49024C6.67286 3.24897 7.29742 3.12486 7.92812 3.125H12.0208ZM10.651 20.3583V4.62708H7.92812C7.04375 4.62708 6.21979 4.98125 5.6 5.59896C5.29005 5.90193 5.04427 6.2642 4.8773 6.66418C4.71033 7.06416 4.62558 7.49366 4.62812 7.92708V17.0583C4.62812 17.9427 4.98229 18.7667 5.6 19.3854C5.90289 19.6956 6.26512 19.9415 6.6651 20.1087C7.06508 20.2758 7.49463 20.3607 7.92812 20.3583H10.651Z" fill="black"/>
</svg>
