<svg width="25" height="25" viewBox="0 0 25 25" fill="none" xmlns="http://www.w3.org/2000/svg">
<path d="M10.8894 18.3198C11.0788 18.3198 11.2663 18.2387 11.4412 18.0811C11.6161 17.9236 11.775 17.6926 11.9088 17.4015C12.0427 17.1104 12.1488 16.7648 12.2212 16.3845C12.2935 16.0042 12.3307 15.5967 12.3306 15.1851V9.79914C12.3306 9.55118 12.353 9.30566 12.3967 9.07661C12.4404 8.84756 12.5044 8.63947 12.5852 8.46425C12.6659 8.28903 12.7617 8.1501 12.8671 8.05542C12.9725 7.96074 13.0855 7.91216 13.1996 7.91246H15.9964C16.0015 7.91216 16.0065 7.9097 16.0111 7.90522C16.0157 7.90073 16.0199 7.89431 16.0234 7.88632C16.0269 7.87833 16.0296 7.86892 16.0314 7.85864C16.0332 7.84835 16.0341 7.8374 16.0339 7.82639V6.74829C16.0339 6.72666 16.03 6.70592 16.0229 6.69063C16.0159 6.67534 16.0064 6.66675 15.9964 6.66675H12.6265C12.4372 6.66645 12.2496 6.74725 12.0747 6.90454C11.8997 7.06182 11.7407 7.2925 11.6068 7.5834C11.4729 7.8743 11.3666 8.21971 11.2941 8.5999C11.2216 8.98009 11.1843 9.38759 11.1843 9.79914V15.1897C11.1843 15.6902 11.0929 16.1704 10.9302 16.5245C10.7674 16.8787 10.5466 17.078 10.3163 17.0786H7.55806C7.55305 17.0786 7.54809 17.0808 7.54346 17.085C7.53884 17.0893 7.53466 17.0955 7.53116 17.1033C7.52767 17.1111 7.52493 17.1203 7.5231 17.1305C7.52128 17.1407 7.52041 17.1515 7.52055 17.1624V18.2405C7.52055 18.2621 7.5245 18.2829 7.53154 18.2982C7.53857 18.3135 7.54812 18.322 7.55806 18.322L10.8894 18.3198ZM17.1885 11.0426V6.74829C17.1885 6.72666 17.1924 6.70592 17.1995 6.69063C17.2065 6.67534 17.2161 6.66675 17.226 6.66675H24.8411C24.8512 6.66674 24.8608 6.67526 24.868 6.69049C24.8752 6.70572 24.8794 6.72646 24.8797 6.74829V7.82639C24.8792 7.8485 24.875 7.86945 24.8679 7.88531C24.8608 7.90116 24.8513 7.91082 24.8411 7.91246H18.3701C18.3652 7.91246 18.3603 7.91457 18.3558 7.91866C18.3512 7.92276 18.3471 7.92877 18.3436 7.93634C18.3401 7.94391 18.3374 7.9529 18.3355 7.96279C18.3336 7.97268 18.3326 7.98329 18.3326 7.99399V10.7934C18.3324 10.9117 18.3429 11.0289 18.3636 11.1382C18.3843 11.2476 18.4147 11.347 18.4532 11.4306C18.4917 11.5142 18.5374 11.5804 18.5877 11.6254C18.638 11.6704 18.6919 11.6932 18.7463 11.6926H23.5626C23.9514 11.742 24.3167 12.1126 24.584 12.7283C24.8512 13.3441 25 14.1586 25 15.0051C25 15.8515 24.8512 16.666 24.584 17.2818C24.3167 17.8976 23.9514 18.2681 23.5626 18.3175H17.227C17.222 18.3178 17.217 18.3159 17.2124 18.312C17.2077 18.308 17.2034 18.302 17.1998 18.2944C17.1962 18.2868 17.1934 18.2778 17.1914 18.2677C17.1895 18.2577 17.1885 18.2469 17.1885 18.236V17.1624C17.1884 17.1515 17.1892 17.1407 17.191 17.1305C17.1929 17.1203 17.1956 17.1111 17.1991 17.1033C17.2026 17.0955 17.2068 17.0893 17.2114 17.085C17.216 17.0808 17.221 17.0786 17.226 17.0786H22.9884C23.1174 17.0906 23.2461 17.0456 23.3669 16.9463C23.4876 16.8471 23.5978 16.6956 23.6909 16.5011C23.7839 16.3066 23.8578 16.0731 23.9082 15.8147C23.9585 15.5564 23.9842 15.2785 23.9837 14.9979C23.9832 14.7173 23.9565 14.4399 23.9053 14.1823C23.8541 13.9248 23.7793 13.6925 23.6856 13.4996C23.5919 13.3066 23.4811 13.157 23.36 13.0598C23.239 12.9625 23.11 12.9197 22.9811 12.9338H18.0565C17.9423 12.9338 17.8293 12.8848 17.7238 12.7897C17.6184 12.6946 17.5226 12.5553 17.442 12.3796C17.3614 12.2039 17.2975 11.9954 17.254 11.766C17.2105 11.5365 17.1882 11.2907 17.1885 11.0426ZM5.88665 11.6926C6.11741 11.6926 6.33873 11.4934 6.5019 11.1387C6.66508 10.784 6.75675 10.303 6.75675 9.8014C6.75675 9.29982 6.66508 8.81879 6.5019 8.46411C6.33873 8.10944 6.11741 7.91019 5.88665 7.91019H0.0387898C0.0287423 7.9102 0.0190904 7.90168 0.0118891 7.88645C0.00468788 7.87122 0.000506273 7.85048 0.000234721 7.82865V6.75055C0.000232786 6.73965 0.00123651 6.72886 0.00318654 6.71882C0.00513658 6.70877 0.00799332 6.69968 0.0115878 6.69208C0.0151824 6.68448 0.0194417 6.67852 0.0241139 6.67456C0.0287862 6.6706 0.0337765 6.66871 0.0387898 6.66901H6.44935C6.82499 6.69097 7.18185 7.03074 7.44396 7.61599C7.70608 8.20125 7.85275 8.98576 7.85275 9.80253C7.85275 10.6193 7.70608 11.4038 7.44396 11.9891C7.18185 12.5743 6.82499 12.9141 6.44935 12.9361H2.01448C1.9004 12.9361 1.78744 12.9849 1.68206 13.0799C1.57668 13.1748 1.48095 13.314 1.40033 13.4895C1.31972 13.6649 1.2558 13.8731 1.21224 14.1023C1.16868 14.3315 1.14633 14.577 1.14647 14.825V18.2518C1.14647 18.2627 1.14546 18.2735 1.14351 18.2836C1.14156 18.2936 1.13871 18.3027 1.13511 18.3103C1.13152 18.3179 1.12726 18.3239 1.12259 18.3278C1.11791 18.3318 1.11292 18.3337 1.10791 18.3334H0.0387898C0.0334055 18.3338 0.0280448 18.3316 0.0230725 18.3271C0.0181003 18.3226 0.013633 18.3158 0.00997474 18.3072C0.00631644 18.2986 0.00355293 18.2884 0.00187221 18.2773C0.000191492 18.2662 -0.000367004 18.2544 0.000234721 18.2428V14.8159C0.00161383 13.9868 0.154198 13.1926 0.424537 12.6075C0.694876 12.0225 1.06091 11.6943 1.4424 11.6949L5.88665 11.6926Z" fill="black"/>
</svg>
