<svg width="64" height="33" viewBox="0 0 64 33" fill="none" xmlns="http://www.w3.org/2000/svg">
<path d="M9.93978 24.2158C9.81571 27.577 8.46239 28.7856 2.94136 29.9C9.16218 31.2362 12.0899 30.6778 17.4053 29.9C17.7502 30.1831 18.1164 30.4502 18.5024 30.7C11.2109 32.2369 7.1481 32.391 0 29.9C6.7249 28.1677 8.70656 28.1326 9.02694 23.2832C9.30835 23.6073 9.61324 23.9186 9.93978 24.2158Z" fill="#C39B17"/>
<path d="M34.0292 29.954C34.4209 30.2527 34.8366 30.5333 35.274 30.794C32.9567 32.1757 30.0326 33 26.8543 33C23.9673 33 21.3726 32.3199 19.271 31.1598C19.0069 31.014 18.7505 30.8606 18.5024 30.7C18.1164 30.4502 17.7502 30.1831 17.4053 29.9C16.6868 29.3103 16.0609 28.6516 15.541 27.9375H16.9478C19.2068 30.2146 22.8033 31.6875 26.8543 31.6875C29.5286 31.6875 32.005 31.0455 34.0292 29.954Z" fill="#C39B17"/>
<path d="M6.79556 17.625C6.79556 13.8785 9.43414 10.5987 13.381 8.79268C13.3049 9.1829 13.2577 9.58023 13.241 9.98339C10.0893 11.6829 8.03376 14.4722 8.03376 17.625C8.03376 19.0657 8.46294 20.4304 9.22979 21.65L9.02694 23.2832C7.61628 21.6588 6.79556 19.7145 6.79556 17.625Z" fill="#C39B17"/>
<path d="M9.93978 24.2158L10.1426 22.8602C10.8203 23.621 11.6415 24.3025 12.5769 24.8824L12.2864 25.9C11.4188 25.4106 10.6308 24.8448 9.93978 24.2158Z" fill="#C39B17"/>
<path d="M9.93978 24.2158C9.61324 23.9186 9.30835 23.6073 9.02694 23.2832L9.22979 21.65C9.49496 22.0717 9.8005 22.4761 10.1426 22.8602L9.93978 24.2158Z" fill="#C39B17"/>
<path d="M15.541 27.9375C15.3401 27.6616 15.7094 28.2292 15.541 27.9375C16.1268 27.9375 16.361 27.9375 16.9478 27.9375C16.8117 27.8003 17.0741 28.0804 16.9478 27.9375H15.541Z" fill="#C39B17"/>
<path d="M26.8543 0C30.1469 0 33.1667 0.884658 35.5216 2.35718C35.1994 2.55867 34.8896 2.77116 34.5933 2.9939C32.4734 1.70717 29.7826 0.9375 26.8543 0.9375C20.9589 0.9375 16.0259 4.057 14.7775 8.23482C14.2964 8.40069 13.8302 8.58714 13.381 8.79268C14.3515 3.81785 20.014 0 26.8543 0Z" fill="#C39B17"/>
<path d="M14.5337 9.37331C14.5845 8.9864 14.6664 8.60642 14.7775 8.23482C15.4999 7.98573 16.2562 7.78304 17.0396 7.63177L16.9382 8.62479C16.0961 8.811 15.2911 9.06313 14.5337 9.37331Z" fill="#C39B17"/>
<path d="M13.241 9.98339C13.2577 9.58023 13.3049 9.1829 13.381 8.79268L13.9968 8.4L14.7775 8.23482C14.6664 8.60642 14.5845 8.9864 14.5337 9.37331C14.0854 9.55688 13.6538 9.76079 13.241 9.98339Z" fill="#C39B17"/>
<path d="M35.5216 2.35718C37.8765 0.884659 40.8963 0 44.1889 0C50.9763 0 56.2009 3.75912 57.1568 8.67767C56.7012 8.47941 56.229 8.30052 55.7422 8.1425C54.4491 4.01113 49.5455 0.9375 43.6937 0.9375C40.8905 0.9375 38.3048 1.64281 36.2294 2.83184C36.0009 2.66757 35.7648 2.50924 35.5216 2.35718Z" fill="#C39B17"/>
<path d="M34.5933 2.9939C34.8896 2.77116 35.1994 2.55867 35.5216 2.35718C35.7648 2.50924 36.0009 2.66757 36.2294 2.83184C35.8975 3.02201 35.5786 3.22456 35.274 3.43858C35.0543 3.28428 34.8273 3.13594 34.5933 2.9939Z" fill="#C39B17"/>
<path d="M39.2362 10.3125C39.2362 7.59675 37.7111 5.15071 35.274 3.43858C35.5786 3.22456 35.8975 3.02201 36.2294 2.83184C38.844 4.71094 40.4744 7.36756 40.4744 10.3125C40.4744 10.3918 40.4732 10.4709 40.4708 10.5498C39.8039 10.5498 39.8605 10.5498 39.2362 10.5498C39.3262 10.1465 39.2742 10.5653 39.2482 10.4971C39.2413 10.4788 39.2362 10.4257 39.2362 10.3125Z" fill="#C39B17"/>
<path d="M37.8684 26.6L38.9723 27.4C38.3295 28.3457 37.4993 29.2064 36.5188 29.954C36.0819 29.7184 35.6661 29.4619 35.274 29.1864C36.3246 28.4483 37.2058 27.5737 37.8684 26.6Z" fill="#C39B17"/>
<path d="M35.274 30.794C34.8366 30.5333 34.4209 30.2527 34.0292 29.954C34.466 29.7184 34.8818 29.4619 35.274 29.1864C35.6661 29.4619 36.0819 29.7184 36.5188 29.954C36.127 30.2527 35.7113 30.5333 35.274 30.794Z" fill="#C39B17"/>
<path d="M43.6937 33C40.5153 33 37.5912 32.1757 35.274 30.794C35.7113 30.5333 36.127 30.2527 36.5188 29.954C38.5429 31.0455 41.0193 31.6875 43.6937 31.6875C47.9514 31.6875 51.7071 30.0604 53.9355 27.5826C54.6742 27.4317 55.388 27.235 56.0713 26.9967C53.9158 30.5402 49.1841 33 43.6937 33Z" fill="#C39B17"/>
<path d="M55.7422 8.1425C56.229 8.30052 56.7012 8.47941 57.1568 8.67767C57.2315 9.06193 57.2801 9.45326 57.3014 9.85043C56.8849 9.63741 56.4503 9.44308 55.9997 9.26902C55.9437 8.88609 55.8573 8.5101 55.7422 8.1425Z" fill="#C39B17"/>
<path d="M57.3138 10.3125C57.3138 11.1701 57.1867 12.0033 56.9452 12.8L55.7845 12.3427C55.9751 11.689 56.0756 11.0096 56.0756 10.3125C56.0756 9.95979 56.0499 9.61162 55.9997 9.26902C56.4503 9.44308 56.8849 9.63741 57.3014 9.85043C57.3096 10.0036 57.3138 10.1577 57.3138 10.3125Z" fill="#C39B17"/>
<path d="M57.1568 8.67767C61.2461 10.4572 64 13.7976 64 17.625C64 21.7821 60.7513 25.3647 56.0713 26.9967C56.3306 26.5704 56.5527 26.1283 56.7343 25.6729C60.3449 24.0351 62.7618 21.0437 62.7618 17.625C62.7618 14.3885 60.5958 11.5351 57.3014 9.85043C57.2801 9.45326 57.2315 9.06193 57.1568 8.67767Z" fill="#C39B17"/>
<path d="M56.0756 22.3125L57.3138 22.6875C57.3138 23.7256 57.1112 24.7279 56.7343 25.6729C56.1403 25.9424 55.5139 26.1752 54.8607 26.3673C55.6394 25.1402 56.0756 23.7649 56.0756 22.3125Z" fill="#C39B17"/>
<path d="M56.0713 26.9967C55.388 27.235 54.6742 27.4317 53.9355 27.5826C54.2822 27.1971 54.5919 26.791 54.8607 26.3673C55.5139 26.1752 56.1403 25.9424 56.7343 25.6729C56.5527 26.1283 56.3306 26.5704 56.0713 26.9967Z" fill="#C39B17"/>
<path d="M20.4157 8.25C19.2084 8.25 18.0414 8.38083 16.9382 8.62479L17.0396 7.63177C18.1192 7.42331 19.2503 7.3125 20.4157 7.3125V8.25Z" fill="#C39B17"/>
<path d="M2.94136 29.9C8.46239 28.7856 9.81571 27.577 9.93978 24.2158C10.6308 24.8448 11.4188 25.4106 12.2864 25.9L12.5769 24.8824C11.6415 24.3025 10.8203 23.621 10.1426 22.8602C9.8005 22.4761 9.49496 22.0717 9.22979 21.65C8.46294 20.4304 8.03376 19.0657 8.03376 17.625C8.03376 14.4722 10.0893 11.6829 13.241 9.98339C13.6538 9.76079 14.0854 9.55688 14.5337 9.37331C15.2911 9.06313 16.0961 8.811 16.9382 8.62479C18.0414 8.38083 19.2084 8.25 20.4157 8.25V7.3125C19.2503 7.3125 18.1192 7.42331 17.0396 7.63177C16.2562 7.78304 15.4999 7.98573 14.7775 8.23482C16.0259 4.057 20.9589 0.9375 26.8543 0.9375C29.7826 0.9375 32.4734 1.70717 34.5933 2.9939C34.8273 3.13594 35.0543 3.28428 35.274 3.43858C37.7111 5.15071 39.2362 7.59675 39.2362 10.3125C39.2362 10.4257 39.2413 10.4788 39.2482 10.4971C39.2445 10.5129 39.2405 10.5304 39.2362 10.5498H40.4708C40.4732 10.4709 40.4744 10.3918 40.4744 10.3125C40.4744 7.36756 38.844 4.71094 36.2294 2.83184C38.3048 1.64281 40.8905 0.9375 43.6937 0.9375C49.5455 0.9375 54.4491 4.01113 55.7422 8.1425C55.8573 8.5101 55.9437 8.88609 55.9997 9.26902C56.0499 9.61162 56.0756 9.95979 56.0756 10.3125C56.0756 11.0096 55.9751 11.689 55.7845 12.3427L56.9452 12.8C57.1867 12.0033 57.3138 11.1701 57.3138 10.3125C57.3138 10.1577 57.3096 10.0036 57.3014 9.85043C60.5958 11.5351 62.7618 14.3885 62.7618 17.625C62.7618 21.0437 60.3449 24.0351 56.7343 25.6729C57.1112 24.7279 57.3138 23.7256 57.3138 22.6875L56.0756 22.3125C56.0756 23.7649 55.6394 25.1402 54.8607 26.3673C54.5919 26.791 54.2822 27.1971 53.9355 27.5826C51.7071 30.0604 47.9514 31.6875 43.6937 31.6875C41.0193 31.6875 38.5429 31.0455 36.5188 29.954C37.4993 29.2064 38.3295 28.3457 38.9723 27.4L37.8684 26.6C37.2058 27.5737 36.3246 28.4483 35.274 29.1864C34.8818 29.4619 34.466 29.7184 34.0292 29.954C32.005 31.0455 29.5286 31.6875 26.8543 31.6875C22.8033 31.6875 19.2068 30.2146 16.9478 27.9375H15.541C16.0609 28.6516 16.6868 29.3103 17.4053 29.9C12.0899 30.6778 9.16218 31.2362 2.94136 29.9Z" fill="#F8DB00"/>
</svg>
