<svg width="25" height="25" viewBox="0 0 25 25" fill="none" xmlns="http://www.w3.org/2000/svg">
<path d="M7.8125 0C7.3981 0 7.00067 0.16462 6.70765 0.457646C6.41462 0.750671 6.25 1.1481 6.25 1.5625V23.4375C6.25 23.8519 6.41462 24.2493 6.70765 24.5424C7.00067 24.8354 7.3981 25 7.8125 25H17.1875C17.6019 25 17.9993 24.8354 18.2924 24.5424C18.5854 24.2493 18.75 23.8519 18.75 23.4375V1.5625C18.75 1.1481 18.5854 0.750671 18.2924 0.457646C17.9993 0.16462 17.6019 0 17.1875 0L7.8125 0ZM8.59375 21.875C8.80095 21.875 8.99966 21.9573 9.14618 22.1038C9.29269 22.2503 9.375 22.449 9.375 22.6562C9.375 22.8635 9.29269 23.0622 9.14618 23.2087C8.99966 23.3552 8.80095 23.4375 8.59375 23.4375C8.38655 23.4375 8.18784 23.3552 8.04132 23.2087C7.89481 23.0622 7.8125 22.8635 7.8125 22.6562C7.8125 22.449 7.89481 22.2503 8.04132 22.1038C8.18784 21.9573 8.38655 21.875 8.59375 21.875ZM11.7188 21.875C11.926 21.875 12.1247 21.9573 12.2712 22.1038C12.4177 22.2503 12.5 22.449 12.5 22.6562C12.5 22.8635 12.4177 23.0622 12.2712 23.2087C12.1247 23.3552 11.926 23.4375 11.7188 23.4375C11.5115 23.4375 11.3128 23.3552 11.1663 23.2087C11.0198 23.0622 10.9375 22.8635 10.9375 22.6562C10.9375 22.449 11.0198 22.2503 11.1663 22.1038C11.3128 21.9573 11.5115 21.875 11.7188 21.875ZM7.8125 2.34375C7.8125 2.13655 7.89481 1.93784 8.04132 1.79132C8.18784 1.64481 8.38655 1.5625 8.59375 1.5625H16.4062C16.6135 1.5625 16.8122 1.64481 16.9587 1.79132C17.1052 1.93784 17.1875 2.13655 17.1875 2.34375C17.1875 2.55095 17.1052 2.74966 16.9587 2.89618C16.8122 3.04269 16.6135 3.125 16.4062 3.125H8.59375C8.38655 3.125 8.18784 3.04269 8.04132 2.89618C7.89481 2.74966 7.8125 2.55095 7.8125 2.34375ZM8.59375 4.6875H16.4062C16.6135 4.6875 16.8122 4.76981 16.9587 4.91632C17.1052 5.06284 17.1875 5.26155 17.1875 5.46875C17.1875 5.67595 17.1052 5.87466 16.9587 6.02118C16.8122 6.16769 16.6135 6.25 16.4062 6.25H8.59375C8.38655 6.25 8.18784 6.16769 8.04132 6.02118C7.89481 5.87466 7.8125 5.67595 7.8125 5.46875C7.8125 5.26155 7.89481 5.06284 8.04132 4.91632C8.18784 4.76981 8.38655 4.6875 8.59375 4.6875Z" fill="black"/>
</svg>
