<svg width="67" height="67" viewBox="0 0 67 67" fill="none" xmlns="http://www.w3.org/2000/svg">
<path d="M11.4684 37.8629C12.7612 37.3872 13.997 37.0833 15.0915 36.9611C18.6899 33.5438 23.5509 31.4441 28.8931 31.4441C33.0725 31.4441 36.957 32.7298 40.1731 34.9253C44.9351 34.5717 48.9335 30.9947 49.7464 26.2212L49.7542 26.2207C50.3927 22.7264 53.1139 20.0797 56.4169 20.0295C60.2406 19.9714 66.1832 23.3931 66.6762 27.6702C67.384 33.8105 61.9073 33.8983 57.0818 33.898C54.8864 37.9953 51.32 41.2104 47.0494 42.9836C48.2681 45.5707 48.9509 48.4579 48.9509 51.5018C48.9509 54.139 46.8137 56.2774 44.1753 56.2774C41.5369 56.2774 39.3996 54.139 39.3996 51.5018C39.3996 48.7144 38.3063 46.1791 36.5287 44.2964C33.5733 43.8383 32.1133 42.7026 31.6735 41.3717C30.7678 41.1221 29.8326 40.9955 28.8931 40.9954C23.1009 40.9954 18.3867 45.7084 18.3867 51.5018C18.3867 54.139 16.2495 56.2774 13.611 56.2774C10.9725 56.2774 8.83528 54.139 8.83528 51.5018C8.83528 49.2179 9.22001 47.0224 9.92639 44.9753C5.57806 44.2785 0.444316 42.2156 0.299062 40.4193C0.110494 38.0862 3.94284 40.6322 11.4684 37.8629Z" fill="#97C83D"/>
<path d="M56.6876 22.4207C55.6715 22.4207 54.8477 23.2444 54.8477 24.2605V26.5223C54.8477 27.5384 55.6715 28.3622 56.6876 28.3622C57.7037 28.3622 58.5275 27.5384 58.5275 26.5223V24.2605C58.5276 23.2444 57.7038 22.4207 56.6876 22.4207Z" fill="#2C3C47"/>
<path d="M14.0057 31.562C14.034 31.5035 14.0606 31.4466 14.09 31.3873C17.2301 25.0398 22.1144 22.0288 23.137 22.8159C23.9616 23.4508 22.3403 23.605 20.6922 29.9006C22.3221 29.6368 24.0333 29.449 25.8051 29.3476C26.6835 25.7033 27.9722 22.693 28.8932 22.693C29.8142 22.693 31.1029 25.7033 31.9814 29.3476C33.7531 29.449 35.4643 29.6368 37.0942 29.9006C35.4461 23.605 33.8246 23.4508 34.6494 22.8159C35.672 22.0288 40.5563 25.04 43.6964 31.3873C43.7257 31.4466 43.7523 31.5036 43.7807 31.562C49.3978 33.5381 53.0056 36.6069 53.0056 40.0529C53.0056 46.0138 42.2101 50.8462 28.8933 50.8462C15.5766 50.8462 4.78106 46.0138 4.78106 40.0529C4.7808 36.6069 8.38859 33.5381 14.0057 31.562Z" fill="#009D82"/>
<path d="M28.7178 17.6694V17.6458C28.727 17.6458 28.7355 17.6481 28.7447 17.6481C28.7538 17.6481 28.7622 17.6458 28.7714 17.6458V17.6505C28.8114 17.6505 28.853 17.6578 28.8931 17.6582C28.9331 17.6579 28.9749 17.6505 29.0149 17.6505V17.6458C29.0241 17.6458 29.0324 17.6481 29.0416 17.6481C29.0507 17.6481 29.0684 17.6694 29.0684 17.6694C38.2646 17.8704 49.8542 26.2613 49.8542 37.3951C49.8542 38.9028 47.969 46.8113 29.0682 46.913V46.9224C29.0587 46.9224 29.0509 46.9217 29.0415 46.9217C29.032 46.9217 29.0243 46.9224 29.0149 46.9224V46.921C28.9718 46.921 28.9357 46.9177 28.8929 46.9177C28.8501 46.9177 28.8142 46.921 28.7711 46.921V46.9224C28.7617 46.9224 28.754 46.9217 28.7445 46.9217C28.7351 46.9217 28.7273 46.9224 28.7178 46.9224V46.913C9.81717 46.8113 7.93175 38.9028 7.93175 37.3951C7.93201 26.2613 19.5217 17.8704 28.7178 17.6694ZM38.2508 35.5791C39.4832 43.3731 42.9845 39.3871 44.0071 38.6C45.0296 37.8129 45.9542 35.9517 43.6961 31.3872C40.556 25.0397 35.6717 22.0286 34.6492 22.8157C33.6266 23.6029 36.3643 23.6485 38.2508 35.5791ZM28.8931 41.8608C30.4206 41.8608 32.9606 42.4164 32.9606 36.6951C32.9606 30.9738 30.4206 22.693 28.8931 22.693C27.3655 22.693 24.8256 30.9739 24.8256 36.6951C24.8256 42.4163 27.3655 41.8608 28.8931 41.8608ZM13.7791 38.6C14.8016 39.3871 18.3029 43.3731 19.5353 35.5791C21.4218 23.6485 24.1594 23.6029 23.1368 22.8157C22.1143 22.0286 17.23 25.0398 14.0899 31.3872C11.8319 35.9518 12.7565 37.8129 13.7791 38.6Z" fill="#047F67"/>
</svg>
