<svg width="32" height="32" viewBox="0 0 32 32" fill="none" xmlns="http://www.w3.org/2000/svg">
<path d="M30.4001 23.2V8.80002C30.4001 7.47202 29.3281 6.40002 28.0001 6.40002H5.58408C4.25608 6.40002 3.18408 7.47202 3.18408 8.80002V23.2C3.18408 24.528 4.25608 25.6 5.58408 25.6H28.0001C29.3281 25.6 30.4001 24.528 30.4001 23.2ZM28.3041 8.62402C28.8321 9.15202 28.5441 9.69602 28.2561 9.96802L21.7601 15.92L28.0001 22.416C28.1921 22.64 28.3201 22.992 28.0961 23.232C27.8881 23.488 27.4081 23.472 27.2001 23.312L20.2081 17.344L16.7841 20.464L13.3761 17.344L6.38408 23.312C6.17608 23.472 5.69608 23.488 5.48808 23.232C5.26408 22.992 5.39208 22.64 5.58408 22.416L11.8241 15.92L5.32808 9.96802C5.04008 9.69602 4.75208 9.15202 5.28008 8.62402C5.80808 8.09602 6.35208 8.35202 6.80008 8.73602L16.7841 16.8L26.7841 8.73602C27.2321 8.35202 27.7761 8.09602 28.3041 8.62402Z" fill="black"/>
</svg>
