<svg width="32" height="32" viewBox="0 0 32 32" fill="none" xmlns="http://www.w3.org/2000/svg">
<path d="M21.3333 2.66669H10.6667C9.95942 2.66669 9.28115 2.94764 8.78105 3.44774C8.28095 3.94783 8 4.62611 8 5.33335V26.6667C8 27.3739 8.28095 28.0522 8.78105 28.5523C9.28115 29.0524 9.95942 29.3334 10.6667 29.3334H21.3333C22.0406 29.3334 22.7189 29.0524 23.219 28.5523C23.719 28.0522 24 27.3739 24 26.6667V5.33335C24 4.62611 23.719 3.94783 23.219 3.44774C22.7189 2.94764 22.0406 2.66669 21.3333 2.66669ZM17.3333 28H14.6667V26.6667H17.3333V28ZM21.3333 25.3334H10.6667V6.66669H21.3333V25.3334Z" fill="black"/>
</svg>
