<svg width="158" height="120" viewBox="0 0 158 120" fill="none" xmlns="http://www.w3.org/2000/svg">
<path fill-rule="evenodd" clip-rule="evenodd" d="M65.392 82.7097C74 85 80.5511 83.8688 89.8367 82.7097L77.7915 94.4193L65.392 82.7097ZM27.8392 48.6452C25.2927 37.2262 32.001 27.2724 48.7412 21.6774H33.5075L16.8568 38.3548L27.8392 48.6452ZM110.03 21.3226L96.2136 20.9677C102.874 24.9759 106.216 27.3125 110.03 31.9677V21.3226ZM127.744 26.6452L139.435 38.3548L118.533 57.5161C117.16 50.9689 115.893 47.5196 105.07 45.4516C99.7119 44.4278 90.0479 43.7896 81.1254 43.2004C72.0264 42.5996 63.6986 42.0497 61.495 41.1935C57.1306 39.498 53.6243 37.6704 57.598 31.9677C61.5717 26.2651 74.9941 26.9691 82.397 27.7097C93.8762 29.7191 97.0916 33.2156 100.465 41.1935L127.035 41.9032L127.744 26.6452ZM39.8844 59.2903L53.3467 72.7742C63.1901 64.3879 68.5584 64.0704 77.7915 72.7742C81.7438 76.5 92.6388 73.9375 97.7934 71.2768C98.6294 70.8452 99.5067 70.3924 100.465 69.9355C104.788 66.3612 104.008 64.2581 99.402 62.129C94.7965 60 84.8769 60.7097 74.603 62.129C64.3291 63.5484 53.5847 63.5481 39.8844 59.2903Z" fill="#A4C9FF"/>
<path fill-rule="evenodd" clip-rule="evenodd" d="M77.7915 104L149 39.7742L127.035 16.7097L30.3191 16L8 39.7742L77.7915 104ZM89.8367 82.7097C80.5511 83.8688 74 85 65.392 82.7097L77.7915 94.4193L89.8367 82.7097ZM48.7412 21.6774C32.001 27.2724 25.2927 37.2262 27.8392 48.6452L16.8568 38.3548L33.5075 21.6774H48.7412ZM96.2136 20.9677L110.03 21.3226V31.9677C106.216 27.3125 102.874 24.9759 96.2136 20.9677ZM139.435 38.3548L127.744 26.6452L127.035 41.9032L100.465 41.1935C97.0916 33.2156 93.8762 29.7191 82.397 27.7097C74.9941 26.9691 61.5717 26.2651 57.598 31.9677C53.6243 37.6704 57.1306 39.498 61.495 41.1935C63.6986 42.0497 72.0264 42.5996 81.1254 43.2004C90.0479 43.7896 99.7119 44.4278 105.07 45.4516C115.893 47.5196 117.16 50.9689 118.533 57.5161L139.435 38.3548ZM53.3467 72.7742L39.8844 59.2903C53.5847 63.5481 64.3291 63.5484 74.603 62.129C84.8769 60.7097 94.7965 60 99.402 62.129C104.008 64.2581 104.788 66.3612 100.465 69.9355C99.5067 70.3924 98.6294 70.8452 97.7934 71.2768C92.6388 73.9375 81.7438 76.5 77.7915 72.7742C68.5584 64.0704 63.1901 64.3879 53.3467 72.7742Z" fill="#0D6EFF"/>
</svg>
