<svg width="15" height="15" viewBox="0 0 15 15" fill="none" xmlns="http://www.w3.org/2000/svg">
<path d="M12.917 3.99317C12.9347 3.98285 12.9494 3.96807 12.9596 3.95031C12.9698 3.93255 12.9751 3.91243 12.9751 3.89195C12.9751 3.87147 12.9698 3.85134 12.9596 3.83358C12.9494 3.81582 12.9347 3.80105 12.917 3.79073L8.44219 1.19092C8.15587 1.02496 7.8308 0.937561 7.49985 0.937561C7.16891 0.937561 6.84384 1.02496 6.55752 1.19092L2.08359 3.79073C2.0659 3.80105 2.05123 3.81582 2.04103 3.83358C2.03083 3.85134 2.02546 3.87147 2.02546 3.89195C2.02546 3.91243 2.03083 3.93255 2.04103 3.95031C2.05123 3.96807 2.0659 3.98285 2.08359 3.99317L7.44141 7.14493C7.45943 7.15554 7.47996 7.16114 7.50088 7.16114C7.5218 7.16114 7.54233 7.15554 7.56035 7.14493L12.917 3.99317ZM1.58203 4.79034C1.56416 4.78002 1.54388 4.7746 1.52325 4.77464C1.50261 4.77467 1.48235 4.78015 1.46451 4.79053C1.44668 4.8009 1.4319 4.8158 1.42166 4.83372C1.41143 4.85164 1.40612 4.87195 1.40625 4.89258V9.98702C1.40669 10.2325 1.4714 10.4736 1.59393 10.6864C1.71646 10.8991 1.89255 11.076 2.10469 11.1996L6.85547 14.0481C6.87328 14.0584 6.89347 14.0638 6.91403 14.0638C6.93459 14.0639 6.95479 14.0584 6.97261 14.0482C6.99042 14.0379 7.00521 14.0231 7.01551 14.0053C7.0258 13.9875 7.03123 13.9673 7.03125 13.9468V8.03614C7.03123 8.01559 7.0258 7.9954 7.01552 7.97761C7.00524 7.95982 6.99045 7.94505 6.97266 7.93477L1.58203 4.79034ZM7.96875 8.05665V13.9453C7.96877 13.9659 7.9742 13.9861 7.9845 14.0039C7.99479 14.0217 8.00959 14.0364 8.0274 14.0467C8.04521 14.057 8.06541 14.0624 8.08597 14.0624C8.10653 14.0624 8.12673 14.057 8.14453 14.0467L12.895 11.1981C13.107 11.0747 13.283 10.898 13.4056 10.6856C13.5282 10.4731 13.593 10.2323 13.5938 9.98702V4.89258C13.5937 4.87205 13.5882 4.85189 13.5779 4.83413C13.5676 4.81638 13.5528 4.80164 13.535 4.79141C13.5172 4.78117 13.497 4.77579 13.4765 4.77581C13.4559 4.77583 13.4358 4.78124 13.418 4.79151L8.02734 7.95557C8.00959 7.96582 7.99484 7.98055 7.98455 7.99829C7.97427 8.01602 7.96882 8.03614 7.96875 8.05665Z" fill="#1A6810"/>
</svg>
