<svg width="15" height="15" viewBox="0 0 15 15" fill="none" xmlns="http://www.w3.org/2000/svg">
<path d="M13.125 11.875V12.5H1.875V11.875L3.125 10.625V6.875C3.125 4.9375 4.39375 3.23125 6.25 2.68125V2.5C6.25 2.16848 6.3817 1.85054 6.61612 1.61612C6.85054 1.3817 7.16848 1.25 7.5 1.25C7.83152 1.25 8.14946 1.3817 8.38388 1.61612C8.6183 1.85054 8.75 2.16848 8.75 2.5V2.68125C10.6063 3.23125 11.875 4.9375 11.875 6.875V10.625L13.125 11.875ZM8.75 13.125C8.75 13.4565 8.6183 13.7745 8.38388 14.0089C8.14946 14.2433 7.83152 14.375 7.5 14.375C7.16848 14.375 6.85054 14.2433 6.61612 14.0089C6.3817 13.7745 6.25 13.4565 6.25 13.125" fill="#1A6810"/>
</svg>
